<?xml version="1.0" encoding="utf-8"?>
<!-- Generator: Adobe Illustrator 27.7.0, SVG Export Plug-In . SVG Version: 6.00 Build 0)  -->
<svg version="1.1" xmlns="http://www.w3.org/2000/svg" xmlns:xlink="http://www.w3.org/1999/xlink" x="0px" y="0px"
	 viewBox="0 0 60.1 34.5" style="enable-background:new 0 0 60.1 34.5;" xml:space="preserve">
<style type="text/css">
	.st0{fill:url(#SVGID_1_);}
	.st1{display:none;}
	.st2{display:inline;}
	.st3{fill:url(#SVGID_00000168087733410818109740000016427688394095408023_);}
	.st4{fill:#FFFFFF;}
	.st5{fill:url(#SVGID_00000087397939233371118100000004425637303982038946_);}
	.st6{fill:none;}
	.st7{fill:#ADADAD;}
	.st8{fill:url(#solid_00000176730321378489025740000012907918715473110912_);}
	.st9{fill:url(#SVGID_00000171700608557377825410000015392095397908982919_);}
</style>
<g id="Download">
	<g>
		<linearGradient id="SVGID_1_" gradientUnits="userSpaceOnUse" x1="54.0557" y1="15.224" x2="2.1607" y2="25.6195">
			<stop  offset="3.310688e-04" style="stop-color:#C054A0"/>
			<stop  offset="0.8591" style="stop-color:#B0248F"/>
		</linearGradient>
		<path class="st0" d="M52.2,12.9c-0.4-7-5.9-12.5-13-12.5c-4.6,0-8.6,2.3-11,6c-1.7-1.1-3.8-1.9-6-1.9c-4.9,0-9,3.2-10.4,7.7
			c-0.2,0-0.4-0.1-0.5-0.1c-6,0-11,4.9-11,11s4.9,11,11,11h37.3c6,0,11-4.9,11-11C59.6,18.4,56.5,14.3,52.2,12.9z M35.9,22.7l-5,6.4
			c-0.5,0.6-1.5,0.6-2,0L24,22.7c-0.4-0.5-0.4-1.4,0.2-1.7c0.2-0.1,1-0.5,1.7,0.2l2.7,3.6V13.7c0-0.7,0.5-1.2,1.2-1.2S31,13,31,13.7
			v11.1l2.7-3.6c0.4-0.5,1.2-0.6,1.7-0.2C36.3,21.5,36.3,22.2,35.9,22.7z"/>
	</g>
</g>
<g id="Users" class="st1">
	<g id="user" class="st2">
		<g>
			<g>
				<path d="M34.9,11.2c0.9,0.1,1.7,0.3,1.7,0.3c-1.8-1-1.8-4.6-1.8-4.6c0.3-7-4.3-6.7-4.3-6.7l0,0l0,0c0,0-4.6-0.4-4.3,6.6
					c0,0,0,3.6-1.8,4.6c0,0,0.5,0,1.2,0c-1.9,0.8-3.2,2.7-3.2,4.9c0,3,2.4,2.4,5.3,2.4h5.5c3,0,5.3,0.5,5.3-2.4
					C38.6,13.9,37,11.9,34.9,11.2z M31.7,12.6l-1.2,2l-1.2-2c-0.9-0.2-1.6-0.6-1.9-1.1c0.7,0.1,1.3,0.2,1.5,0.5l-0.7-1.5
					c0.7,0.7,1.4,1,2.3,1c0.8,0,1.6-0.4,2.2-1l-0.5,1c0.2-0.3,0.8-0.3,1.5-0.3C33.6,11.8,32.8,12.4,31.7,12.6z M34.1,6.2
					C34,7.1,33.8,8,33.4,8.7c-0.6,1.3-1.7,2.1-2.9,2.1c-1.8,0-3.3-2-3.5-4.5c0,0,1.4-0.2,2.3-0.6c0,0,1.5-0.5,3.4-1.9l0,0
					c0,0,0,0,0.1,0.1C33,4.2,33.3,5,32.7,5.4l1.2,0.2l0,0h0.2C34.1,5.8,34.1,6,34.1,6.2z"/>
				
					<linearGradient id="SVGID_00000038390257126682725480000004451130688707273638_" gradientUnits="userSpaceOnUse" x1="38.1573" y1="13.5025" x2="22.3888" y2="16.8542">
					<stop  offset="3.310688e-04" style="stop-color:#C054A0"/>
					<stop  offset="0.9893" style="stop-color:#B0248F"/>
				</linearGradient>
				<path style="fill:url(#SVGID_00000038390257126682725480000004451130688707273638_);" d="M33.7,10.9c0,1-1.5,1.7-3.2,1.7
					s-3.2-0.8-3.2-1.7c-2.7,0.3-4.9,2.5-4.9,5.2c0,2.9,2.4,2.9,5.4,2.9h5.6c2.9,0,5.4,0,5.4-2.9C38.5,13.4,36.4,11.2,33.7,10.9z"/>
				<path class="st4" d="M32.3,11.5l0.5-1c-0.6,0.6-1.4,1-2.2,1c-0.9,0-1.6-0.4-2.3-1L29,12c-0.2-0.3-0.8-0.4-1.5-0.5
					c0.3,0.5,1,0.9,1.9,1.1l1.2,2l1.2-2c1.1-0.2,1.9-0.8,2-1.5C33,11.1,32.4,11.2,32.3,11.5z"/>
			</g>
			<path d="M46.3,31.8c0.9,0.1,1.7,0.3,1.7,0.3c-1.8-1-1.8-4.6-1.8-4.6c0.3-7-4.3-6.6-4.3-6.6l0,0l0,0c0,0-4.6-0.4-4.3,6.6
				c0,0,0,3.6-1.8,4.6c0,0,0.5,0,1.2,0c-1.9,0.8-3.2,2.7-3.2,4.9c0,3,2.4,2.4,5.3,2.4h5.5c3,0,5.3,0.5,5.3-2.4
				C50.1,34.5,48.5,32.5,46.3,31.8z M43.2,33.2l-1.2,2l-1.2-2c-0.9-0.2-1.6-0.6-1.9-1.1c0.7,0.1,1.3,0.2,1.5,0.5l-0.7-1.5
				c0.7,0.7,1.4,1,2.3,1c0.8,0,1.6-0.4,2.2-1l-0.5,1c0.2-0.3,0.8-0.3,1.5-0.3C45.1,32.4,44.3,33,43.2,33.2z M45.5,26.8
				c-0.1,0.9-0.3,1.8-0.7,2.5c-0.6,1.3-1.7,2.1-2.9,2.1c-1.8,0-3.3-2-3.5-4.5c0,0,1.4-0.2,2.3-0.6c0,0,1.5-0.5,3.4-1.9l0,0
				c0,0,0,0,0.1,0.1c0.2,0.3,0.5,1.1-0.1,1.5l1.2,0.2l0,0h0.2C45.6,26.5,45.6,26.6,45.5,26.8z"/>
			
				<linearGradient id="SVGID_00000147212100379749967090000005710024930237929913_" gradientUnits="userSpaceOnUse" x1="27.0428" y1="33.6254" x2="10.8811" y2="37.0607">
				<stop  offset="3.310688e-04" style="stop-color:#D5D5D5"/>
				<stop  offset="0.9893" style="stop-color:#ADADAD"/>
			</linearGradient>
			<path style="fill:url(#SVGID_00000147212100379749967090000005710024930237929913_);" d="M22.4,30.9c0,1-1.5,1.8-3.3,1.8
				s-3.3-0.8-3.3-1.8c-2.8,0.3-5,2.6-5,5.5c0,3,2.5,3,5.5,3H22c3,0,5.5,0,5.5-3C27.4,33.5,25.2,31.2,22.4,30.9z"/>
			<path d="M14.9,25.9V26c0.3,3,2,5.3,4.1,5.3s3.9-2.3,4.1-5.3v-0.1c0-0.1,0-0.3,0-0.4s0-0.2,0-0.3c0-0.2,0-0.5,0-0.7
				c-0.3-2.1-2-3.8-4.2-3.8c-2.1,0-3.8,1.6-4.2,3.8c0,0.2,0,0.4,0,0.7c0,0.1,0,0.2,0,0.3C14.9,25.7,14.9,25.8,14.9,25.9z M16.5,23.5
				c0,0,1.2,0.6,2.6,0.6s2.6-0.6,2.6-0.6c0.9,0.3,0.5,2.8,0.5,2.8c0.2-0.2,0.4-0.2,0.6-0.3c-0.2,2.6-1.8,4.6-3.6,4.6
				c-1.9,0-3.4-2-3.6-4.6c0.2,0,0.4,0.1,0.6,0.3C16,26.4,15.6,23.9,16.5,23.5z"/>
			<g id="face-shirt-patterns">
				<path class="st6" d="M19.1,30.7c1.9,0,3.4-2,3.6-4.6c-0.2,0-0.4,0.1-0.6,0.3c0,0,0.4-2.5-0.5-2.8c0,0-1.2,0.6-2.6,0.6
					s-2.6-0.6-2.6-0.6c-0.9,0.3-0.5,2.8-0.5,2.8c-0.2-0.2-0.4-0.2-0.6-0.3C15.7,28.7,17.2,30.7,19.1,30.7z"/>
				<path class="st6" d="M33.8,5.6l-1.2-0.2c0.7-0.4,0.3-1.2,0.1-1.5c0-0.1-0.1-0.1-0.1-0.1l0,0c-1.9,1.4-3.4,1.9-3.4,1.9
					c-0.9,0.3-2.3,0.6-2.3,0.6c0.2,2.5,1.7,4.5,3.5,4.5c1.2,0,2.2-0.8,2.9-2.1C33.7,8,33.9,7.1,34,6.2c0-0.2,0-0.3,0-0.5L33.8,5.6
					C33.9,5.6,33.8,5.6,33.8,5.6z"/>
				<path class="st6" d="M45.3,26.2L44.1,26c0.7-0.4,0.3-1.2,0.1-1.5c0-0.1-0.1-0.1-0.1-0.1l0,0c-1.9,1.4-3.4,1.9-3.4,1.9
					c-0.9,0.3-2.3,0.6-2.3,0.6c0.2,2.5,1.7,4.5,3.5,4.5c1.2,0,2.2-0.8,2.9-2.1c0.4-0.7,0.6-1.6,0.7-2.5c0-0.2,0-0.3,0-0.5L45.3,26.2
					L45.3,26.2L45.3,26.2z"/>
				<path class="st6" d="M43.7,32.1l0.5-1c-0.6,0.6-1.4,1-2.2,1c-0.9,0-1.6-0.4-2.3-1l0.7,1.5c-0.2-0.3-0.8-0.4-1.5-0.5
					c0.3,0.5,1,0.9,1.9,1.1l1.2,2l1.2-2c1.1-0.2,1.9-0.8,2-1.5C44.5,31.7,43.9,31.8,43.7,32.1z"/>
			</g>
			<polygon class="st1" points="31.8,20.9 29.2,20.9 29.2,27.5 23.4,30.9 24.7,33.2 30.5,29.9 36.3,33.2 37.6,30.9 31.8,27.5 			"/>
		</g>
	</g>
</g>
<g id="resources" class="st1">
	<g class="st2">
		<polygon class="st7" points="29.4,18.9 28.2,18.9 28.2,18.3 28.8,18.3 28.8,17.7 29.4,17.7 		"/>
		<rect x="25.2" y="18.3" class="st7" width="1.8" height="0.6"/>
		<rect x="22.2" y="18.3" class="st7" width="1.8" height="0.6"/>
		<rect x="19.1" y="18.3" class="st7" width="1.8" height="0.6"/>
		<rect x="16.1" y="18.3" class="st7" width="1.8" height="0.6"/>
		<rect x="13.1" y="18.3" class="st7" width="1.8" height="0.6"/>
		<polygon class="st7" points="11.9,18.9 10.7,18.9 10.7,17.7 11.3,17.7 11.3,18.3 11.9,18.3 		"/>
		<rect x="10.7" y="14.7" class="st7" width="0.6" height="1.8"/>
		<rect x="10.7" y="11.7" class="st7" width="0.6" height="1.8"/>
		<rect x="10.7" y="8.7" class="st7" width="0.6" height="1.8"/>
		<rect x="10.7" y="5.7" class="st7" width="0.6" height="1.8"/>
		<rect x="10.7" y="2.6" class="st7" width="0.6" height="1.8"/>
		<polygon class="st7" points="11.3,1.4 10.7,1.4 10.7,0.2 11.9,0.2 11.9,0.8 11.3,0.8 		"/>
		<rect x="25.2" y="0.2" class="st7" width="1.8" height="0.6"/>
		<rect x="22.2" y="0.2" class="st7" width="1.8" height="0.6"/>
		<rect x="19.1" y="0.2" class="st7" width="1.8" height="0.6"/>
		<rect x="16.1" y="0.2" class="st7" width="1.8" height="0.6"/>
		<rect x="13.1" y="0.2" class="st7" width="1.8" height="0.6"/>
		<polygon class="st7" points="29.4,1.4 28.8,1.4 28.8,0.8 28.2,0.8 28.2,0.2 29.4,0.2 		"/>
		<rect x="28.8" y="14.7" class="st7" width="0.6" height="1.8"/>
		<rect x="28.8" y="11.7" class="st7" width="0.6" height="1.8"/>
		<rect x="28.8" y="8.7" class="st7" width="0.6" height="1.8"/>
		<rect x="28.8" y="5.7" class="st7" width="0.6" height="1.8"/>
		<rect x="28.8" y="2.6" class="st7" width="0.6" height="1.8"/>
		
			<linearGradient id="solid_00000148638386337595079530000000040167385613435309_" gradientUnits="userSpaceOnUse" x1="51.1908" y1="7.315" x2="29.9856" y2="11.8223">
			<stop  offset="3.310688e-04" style="stop-color:#C054A0"/>
			<stop  offset="0.9893" style="stop-color:#B0248F"/>
		</linearGradient>
		<path id="solid" style="fill:url(#solid_00000148638386337595079530000000040167385613435309_);" d="M49.9,17.7
			c0,0.7-0.6,1.2-1.2,1.2H32.5c-0.7,0-1.2-0.6-1.2-1.2V1.5c0-0.7,0.6-1.2,1.2-1.2h16.2c0.7,0,1.2,0.6,1.2,1.2V17.7z"/>
		<polygon class="st7" points="29.4,39.4 28.2,39.4 28.2,38.8 28.8,38.8 28.8,38.2 29.4,38.2 		"/>
		<rect x="25.2" y="38.8" class="st7" width="1.8" height="0.6"/>
		<rect x="22.2" y="38.8" class="st7" width="1.8" height="0.6"/>
		<rect x="19.1" y="38.8" class="st7" width="1.8" height="0.6"/>
		<rect x="16.1" y="38.8" class="st7" width="1.8" height="0.6"/>
		<rect x="13.1" y="38.8" class="st7" width="1.8" height="0.6"/>
		<polygon class="st7" points="11.9,39.4 10.7,39.4 10.7,38.2 11.3,38.2 11.3,38.8 11.9,38.8 		"/>
		<rect x="10.7" y="35.2" class="st7" width="0.6" height="1.8"/>
		<rect x="10.7" y="32.2" class="st7" width="0.6" height="1.8"/>
		<rect x="10.7" y="29.2" class="st7" width="0.6" height="1.8"/>
		<rect x="10.7" y="26.2" class="st7" width="0.6" height="1.8"/>
		<rect x="10.7" y="23.2" class="st7" width="0.6" height="1.8"/>
		<polygon class="st7" points="11.3,22 10.7,22 10.7,20.8 11.9,20.8 11.9,21.4 11.3,21.4 		"/>
		<rect x="25.2" y="20.8" class="st7" width="1.8" height="0.6"/>
		<rect x="22.2" y="20.8" class="st7" width="1.8" height="0.6"/>
		<rect x="19.1" y="20.8" class="st7" width="1.8" height="0.6"/>
		<rect x="16.1" y="20.8" class="st7" width="1.8" height="0.6"/>
		<rect x="13.1" y="20.8" class="st7" width="1.8" height="0.6"/>
		<polygon class="st7" points="29.4,22 28.8,22 28.8,21.4 28.2,21.4 28.2,20.8 29.4,20.8 		"/>
		<rect x="28.8" y="35.2" class="st7" width="0.6" height="1.8"/>
		<rect x="28.8" y="32.2" class="st7" width="0.6" height="1.8"/>
		<rect x="28.8" y="29.2" class="st7" width="0.6" height="1.8"/>
		<rect x="28.8" y="26.2" class="st7" width="0.6" height="1.8"/>
		<rect x="28.8" y="23.2" class="st7" width="0.6" height="1.8"/>
		<polygon class="st7" points="49.9,39.4 48.7,39.4 48.7,38.8 49.3,38.8 49.3,38.2 49.9,38.2 		"/>
		<rect x="45.7" y="38.8" class="st7" width="1.8" height="0.6"/>
		<rect x="42.7" y="38.8" class="st7" width="1.8" height="0.6"/>
		<rect x="39.7" y="38.8" class="st7" width="1.8" height="0.6"/>
		<rect x="36.7" y="38.8" class="st7" width="1.8" height="0.6"/>
		<rect x="33.7" y="38.8" class="st7" width="1.8" height="0.6"/>
		<polygon class="st7" points="32.5,39.4 31.3,39.4 31.3,38.2 31.9,38.2 31.9,38.8 32.5,38.8 		"/>
		<rect x="31.3" y="35.2" class="st7" width="0.6" height="1.8"/>
		<rect x="31.3" y="32.2" class="st7" width="0.6" height="1.8"/>
		<rect x="31.3" y="29.2" class="st7" width="0.6" height="1.8"/>
		<rect x="31.3" y="26.2" class="st7" width="0.6" height="1.8"/>
		<rect x="31.3" y="23.2" class="st7" width="0.6" height="1.8"/>
		<polygon class="st7" points="31.9,22 31.3,22 31.3,20.8 32.5,20.8 32.5,21.4 31.9,21.4 		"/>
		<rect x="45.7" y="20.8" class="st7" width="1.8" height="0.6"/>
		<rect x="42.7" y="20.8" class="st7" width="1.8" height="0.6"/>
		<rect x="39.7" y="20.8" class="st7" width="1.8" height="0.6"/>
		<rect x="36.7" y="20.8" class="st7" width="1.8" height="0.6"/>
		<rect x="33.7" y="20.8" class="st7" width="1.8" height="0.6"/>
		<polygon class="st7" points="49.9,22 49.3,22 49.3,21.4 48.7,21.4 48.7,20.8 49.9,20.8 		"/>
		<rect x="49.3" y="35.2" class="st7" width="0.6" height="1.8"/>
		<rect x="49.3" y="32.2" class="st7" width="0.6" height="1.8"/>
		<rect x="49.3" y="29.2" class="st7" width="0.6" height="1.8"/>
		<rect x="49.3" y="26.2" class="st7" width="0.6" height="1.8"/>
		<rect x="49.3" y="23.2" class="st7" width="0.6" height="1.8"/>
	</g>
</g>
<g id="guides" class="st1">
	<g class="st2">
		
			<linearGradient id="SVGID_00000140727478012537741550000011672611284592229781_" gradientUnits="userSpaceOnUse" x1="52.4289" y1="15.1713" x2="8.1662" y2="24.5796">
			<stop  offset="3.310688e-04" style="stop-color:#C054A0"/>
			<stop  offset="0.9893" style="stop-color:#B0248F"/>
		</linearGradient>
		<path style="fill:url(#SVGID_00000140727478012537741550000011672611284592229781_);" d="M44.7,0.5H15.9c-3.2,0-5.7,2.6-5.7,5.7
			v27.2c0,3.2,2.6,5.7,5.7,5.7h28.7c3.2,0,5.7-2.6,5.7-5.7V6.3C50.4,3.1,47.8,0.5,44.7,0.5z M20.3,30.8H19c-0.7,0-1.3-0.6-1.3-1.3
			s0.6-1.3,1.3-1.3h1.3c0.7,0,1.3,0.6,1.3,1.3S21,30.8,20.3,30.8z M20.3,21.2H19c-0.7,0-1.3-0.6-1.3-1.3c0-0.7,0.6-1.3,1.3-1.3h1.3
			c0.7,0,1.3,0.6,1.3,1.3C21.6,20.6,21,21.2,20.3,21.2z M20.3,11.5H19c-0.7,0-1.3-0.6-1.3-1.3s0.6-1.3,1.3-1.3h1.3
			c0.7,0,1.3,0.6,1.3,1.3S21,11.5,20.3,11.5z M41.6,30.8H25.8c-0.7,0-1.3-0.6-1.3-1.3s0.6-1.3,1.3-1.3h15.8c0.7,0,1.3,0.6,1.3,1.3
			S42.3,30.8,41.6,30.8z M41.6,21.2H25.8c-0.7,0-1.3-0.6-1.3-1.3c0-0.7,0.6-1.3,1.3-1.3h15.8c0.7,0,1.3,0.6,1.3,1.3
			C42.9,20.6,42.3,21.2,41.6,21.2z M41.6,11.5H25.8c-0.7,0-1.3-0.6-1.3-1.3s0.6-1.3,1.3-1.3h15.8c0.7,0,1.3,0.6,1.3,1.3
			S42.3,11.5,41.6,11.5z"/>
	</g>
</g>
</svg>
