<?xml version="1.0" encoding="utf-8"?>
<!-- Generator: Adobe Illustrator 27.7.0, SVG Export Plug-In . SVG Version: 6.00 Build 0)  -->
<svg version="1.1" id="download" xmlns="http://www.w3.org/2000/svg" xmlns:xlink="http://www.w3.org/1999/xlink" x="0px" y="0px"
	 viewBox="0 0 48 60" style="enable-background:new 0 0 48 60;" xml:space="preserve">
<style type="text/css">
	.st0{fill:url(#SVGID_1_);}
</style>
<g>
	<linearGradient id="SVGID_1_" gradientUnits="userSpaceOnUse" x1="11.5814" y1="41.1186" x2="38.547" y2="14.153">
		<stop  offset="3.310688e-04" style="stop-color:#C054A0"/>
		<stop  offset="1" style="stop-color:#B0248F"/>
	</linearGradient>
	<path class="st0" d="M42,20.4c-0.3-5.6-4.8-10.1-10.5-10.1c-3.7,0-7,1.9-8.9,4.9c-1.4-0.9-3.1-1.5-4.9-1.5c-4,0-7.3,2.6-8.4,6.2
		c-0.2,0-0.3-0.1-0.4-0.1c-4.9,0-8.9,4-8.9,8.9s4,8.9,8.9,8.9h30.2c4.9,0,8.9-4,8.9-8.9C48,24.9,45.5,21.6,42,20.4z M28.8,28.4
		l-4,5.2c-0.4,0.5-1.2,0.5-1.6,0l-4-5.2c-0.3-0.4-0.3-1.1,0.2-1.4c0.2-0.1,0.8-0.4,1.4,0.2l2.2,2.9v-9c0-0.6,0.4-1,1-1s1,0.4,1,1v9
		l2.2-2.9c0.3-0.4,1-0.5,1.4-0.2C29.1,27.4,29.1,28,28.8,28.4z"/>
</g>
</svg>
