<?xml version="1.0" encoding="utf-8"?>
<!-- Generator: Adobe Illustrator 27.7.0, SVG Export Plug-In . SVG Version: 6.00 Build 0)  -->
<svg version="1.1" xmlns="http://www.w3.org/2000/svg" xmlns:xlink="http://www.w3.org/1999/xlink" x="0px" y="0px"
	 viewBox="0 0 41 39.5" style="enable-background:new 0 0 41 39.5;" xml:space="preserve">
<style type="text/css">
	.st0{display:none;}
	.st1{display:inline;}
	.st2{fill:url(#SVGID_1_);}
	.st3{fill:url(#SVGID_00000062894062279537351050000008672574854313278101_);}
	.st4{fill:#FFFFFF;}
	.st5{fill:url(#SVGID_00000171678912650683854710000017507659951524141242_);}
	.st6{fill:none;}
	.st7{fill:#ADADAD;}
	.st8{fill:url(#solid_00000079459180634887173290000001700331828519145919_);}
	.st9{fill:url(#SVGID_00000001635749134314629500000009426637734593004954_);}
</style>
<g id="Download" class="st0">
	<g class="st1">
		<linearGradient id="SVGID_1_" gradientUnits="userSpaceOnUse" x1="44.2377" y1="15.1747" x2="-7.6573" y2="25.5702">
			<stop  offset="3.310688e-04" style="stop-color:#C054A0"/>
			<stop  offset="0.8591" style="stop-color:#B0248F"/>
		</linearGradient>
		<path class="st2" d="M42.4,12.9c-0.4-7-5.9-12.5-13-12.5c-4.6,0-8.6,2.3-11,6c-1.7-1.1-3.8-1.9-6-1.9c-4.9,0-9,3.2-10.4,7.7
			c-0.2,0-0.4-0.1-0.5-0.1c-6,0-11,4.9-11,11s4.9,11,11,11h37.3c6,0,11-4.9,11-11C49.8,18.4,46.7,14.3,42.4,12.9z M26.1,22.7l-5,6.4
			c-0.5,0.6-1.5,0.6-2,0l-4.9-6.4c-0.4-0.5-0.4-1.4,0.2-1.7c0.2-0.1,1-0.5,1.7,0.2l2.7,3.6V13.7c0-0.7,0.5-1.2,1.2-1.2
			s1.2,0.5,1.2,1.2v11.1l2.7-3.6c0.4-0.5,1.2-0.6,1.7-0.2C26.5,21.5,26.5,22.2,26.1,22.7z"/>
	</g>
</g>
<g id="Users" class="st0">
	<g id="user" class="st1">
		<g>
			<g>
				<path d="M24.5,11.2c0.9,0.1,1.7,0.3,1.7,0.3c-1.8-1-1.8-4.6-1.8-4.6c0.3-7-4.3-6.7-4.3-6.7l0,0l0,0c0,0-4.6-0.4-4.3,6.6
					c0,0,0,3.6-1.8,4.6c0,0,0.5,0,1.2,0c-1.9,0.8-3.2,2.7-3.2,4.9c0,3,2.4,2.4,5.3,2.4h5.5c3,0,5.3,0.5,5.3-2.4
					C28.2,13.9,26.6,11.9,24.5,11.2z M21.3,12.6l-1.2,2l-1.2-2C18,12.4,17.3,12,17,11.5c0.7,0.1,1.3,0.2,1.5,0.5l-0.7-1.5
					c0.7,0.7,1.4,1,2.3,1c0.8,0,1.6-0.4,2.2-1l-0.5,1c0.2-0.3,0.8-0.3,1.5-0.3C23.2,11.8,22.4,12.4,21.3,12.6z M23.7,6.2
					C23.6,7.1,23.4,8,23,8.7c-0.6,1.3-1.7,2.1-2.9,2.1c-1.8,0-3.3-2-3.5-4.5c0,0,1.4-0.2,2.3-0.6c0,0,1.5-0.5,3.4-1.9l0,0
					c0,0,0,0,0.1,0.1c0.2,0.3,0.5,1.1-0.1,1.5l1.2,0.2l0,0h0.2C23.7,5.8,23.7,6,23.7,6.2z"/>
				
					<linearGradient id="SVGID_00000129895680431993678570000008941246338157661873_" gradientUnits="userSpaceOnUse" x1="27.6783" y1="13.5252" x2="11.9098" y2="16.8769">
					<stop  offset="3.310688e-04" style="stop-color:#C054A0"/>
					<stop  offset="0.9893" style="stop-color:#B0248F"/>
				</linearGradient>
				<path style="fill:url(#SVGID_00000129895680431993678570000008941246338157661873_);" d="M23.2,10.9c0,1-1.5,1.7-3.2,1.7
					s-3.2-0.8-3.2-1.7c-2.7,0.3-4.9,2.5-4.9,5.2c0,2.9,2.4,2.9,5.4,2.9h5.6c2.9,0,5.4,0,5.4-2.9C28.1,13.4,25.9,11.2,23.2,10.9z"/>
				<path class="st4" d="M21.9,11.5l0.5-1c-0.6,0.6-1.4,1-2.2,1c-0.9,0-1.6-0.4-2.3-1l0.7,1.5c-0.2-0.3-0.8-0.4-1.5-0.5
					c0.3,0.5,1,0.9,1.9,1.1l1.2,2l1.2-2c1.1-0.2,1.9-0.8,2-1.5C22.6,11.1,22,11.2,21.9,11.5z"/>
			</g>
			<path d="M35.9,31.8c0.9,0.1,1.7,0.3,1.7,0.3c-1.8-1-1.8-4.6-1.8-4.6c0.3-7-4.3-6.6-4.3-6.6l0,0l0,0c0,0-4.6-0.4-4.3,6.6
				c0,0,0,3.6-1.8,4.6c0,0,0.5,0,1.2,0c-1.9,0.8-3.2,2.7-3.2,4.9c0,3,2.4,2.4,5.3,2.4h5.5c3,0,5.3,0.5,5.3-2.4
				C39.7,34.5,38.1,32.5,35.9,31.8z M32.8,33.2l-1.2,2l-1.2-2c-0.9-0.2-1.6-0.6-1.9-1.1c0.7,0.1,1.3,0.2,1.5,0.5l-0.7-1.5
				c0.7,0.7,1.4,1,2.3,1c0.8,0,1.6-0.4,2.2-1l-0.5,1c0.2-0.3,0.8-0.3,1.5-0.3C34.7,32.4,33.9,33,32.8,33.2z M35.1,26.8
				c-0.1,0.9-0.3,1.8-0.7,2.5c-0.6,1.3-1.7,2.1-2.9,2.1c-1.8,0-3.3-2-3.5-4.5c0,0,1.4-0.2,2.3-0.6c0,0,1.5-0.5,3.4-1.9l0,0
				c0,0,0,0,0.1,0.1c0.2,0.3,0.5,1.1-0.1,1.5l1.2,0.2l0,0h0.2C35.2,26.5,35.2,26.6,35.1,26.8z"/>
			
				<linearGradient id="SVGID_00000092417409162556958080000018438505881161504417_" gradientUnits="userSpaceOnUse" x1="16.5638" y1="33.6482" x2="0.4021" y2="37.0835">
				<stop  offset="3.310688e-04" style="stop-color:#D5D5D5"/>
				<stop  offset="0.9893" style="stop-color:#ADADAD"/>
			</linearGradient>
			<path style="fill:url(#SVGID_00000092417409162556958080000018438505881161504417_);" d="M12,30.9c0,1-1.5,1.8-3.3,1.8
				s-3.3-0.8-3.3-1.8c-2.8,0.3-5,2.6-5,5.5c0,3,2.5,3,5.5,3h5.7c3,0,5.5,0,5.5-3C17,33.5,14.8,31.2,12,30.9z"/>
			<path d="M4.5,25.9V26c0.3,3,2,5.3,4.1,5.3s3.9-2.3,4.1-5.3v-0.1c0-0.1,0-0.3,0-0.4s0-0.2,0-0.3c0-0.2,0-0.5,0-0.7
				c-0.3-2.1-2-3.8-4.2-3.8c-2.1,0-3.8,1.6-4.2,3.8c0,0.2,0,0.4,0,0.7c0,0.1,0,0.2,0,0.3C4.5,25.7,4.5,25.8,4.5,25.9z M6.1,23.5
				c0,0,1.2,0.6,2.6,0.6s2.6-0.6,2.6-0.6c0.9,0.3,0.5,2.8,0.5,2.8c0.2-0.2,0.4-0.2,0.6-0.3c-0.2,2.6-1.8,4.6-3.6,4.6
				c-1.9,0-3.4-2-3.6-4.6c0.2,0,0.4,0.1,0.6,0.3C5.6,26.4,5.2,23.9,6.1,23.5z"/>
			<g id="face-shirt-patterns">
				<path class="st6" d="M8.7,30.7c1.9,0,3.4-2,3.6-4.6c-0.2,0-0.4,0.1-0.6,0.3c0,0,0.4-2.5-0.5-2.8c0,0-1.2,0.6-2.6,0.6
					S6,23.6,6,23.6c-0.9,0.3-0.5,2.8-0.5,2.8c-0.2-0.2-0.4-0.2-0.6-0.3C5.3,28.7,6.8,30.7,8.7,30.7z"/>
				<path class="st6" d="M23.4,5.6l-1.2-0.2c0.7-0.4,0.3-1.2,0.1-1.5c0-0.1-0.1-0.1-0.1-0.1l0,0c-1.9,1.4-3.4,1.9-3.4,1.9
					c-0.9,0.3-2.3,0.6-2.3,0.6c0.2,2.5,1.7,4.5,3.5,4.5c1.2,0,2.2-0.8,2.9-2.1c0.4-0.7,0.6-1.6,0.7-2.5c0-0.2,0-0.3,0-0.5L23.4,5.6
					C23.5,5.6,23.4,5.6,23.4,5.6z"/>
				<path class="st6" d="M34.9,26.2L33.7,26c0.7-0.4,0.3-1.2,0.1-1.5c0-0.1-0.1-0.1-0.1-0.1l0,0c-1.9,1.4-3.4,1.9-3.4,1.9
					c-0.9,0.3-2.3,0.6-2.3,0.6c0.2,2.5,1.7,4.5,3.5,4.5c1.2,0,2.2-0.8,2.9-2.1c0.4-0.7,0.6-1.6,0.7-2.5c0-0.2,0-0.3,0-0.5L34.9,26.2
					L34.9,26.2L34.9,26.2z"/>
				<path class="st6" d="M33.3,32.1l0.5-1c-0.6,0.6-1.4,1-2.2,1c-0.9,0-1.6-0.4-2.3-1l0.7,1.5c-0.2-0.3-0.8-0.4-1.5-0.5
					c0.3,0.5,1,0.9,1.9,1.1l1.2,2l1.2-2c1.1-0.2,1.9-0.8,2-1.5C34.1,31.7,33.5,31.8,33.3,32.1z"/>
			</g>
			<polygon class="st0" points="21.4,20.9 18.8,20.9 18.8,27.5 13,30.9 14.3,33.2 20.1,29.9 25.9,33.2 27.2,30.9 21.4,27.5 			"/>
		</g>
	</g>
</g>
<g id="resources" class="st0">
	<g class="st1">
		<polygon class="st7" points="19,18.9 17.7,18.9 17.7,18.3 18.4,18.3 18.4,17.6 19,17.6 		"/>
		<rect x="14.7" y="18.3" class="st7" width="1.8" height="0.6"/>
		<rect x="11.7" y="18.3" class="st7" width="1.8" height="0.6"/>
		<rect x="8.7" y="18.3" class="st7" width="1.8" height="0.6"/>
		<rect x="5.7" y="18.3" class="st7" width="1.8" height="0.6"/>
		<rect x="2.7" y="18.3" class="st7" width="1.8" height="0.6"/>
		<polygon class="st7" points="1.5,18.9 0.3,18.9 0.3,17.6 0.9,17.6 0.9,18.3 1.5,18.3 		"/>
		<rect x="0.3" y="14.6" class="st7" width="0.6" height="1.8"/>
		<rect x="0.3" y="11.6" class="st7" width="0.6" height="1.8"/>
		<rect x="0.3" y="8.6" class="st7" width="0.6" height="1.8"/>
		<rect x="0.3" y="5.6" class="st7" width="0.6" height="1.8"/>
		<rect x="0.3" y="2.6" class="st7" width="0.6" height="1.8"/>
		<polygon class="st7" points="0.9,1.4 0.3,1.4 0.3,0.2 1.5,0.2 1.5,0.8 0.9,0.8 		"/>
		<rect x="14.7" y="0.2" class="st7" width="1.8" height="0.6"/>
		<rect x="11.7" y="0.2" class="st7" width="1.8" height="0.6"/>
		<rect x="8.7" y="0.2" class="st7" width="1.8" height="0.6"/>
		<rect x="5.7" y="0.2" class="st7" width="1.8" height="0.6"/>
		<rect x="2.7" y="0.2" class="st7" width="1.8" height="0.6"/>
		<polygon class="st7" points="19,1.4 18.4,1.4 18.4,0.8 17.7,0.8 17.7,0.2 19,0.2 		"/>
		<rect x="18.4" y="14.6" class="st7" width="0.6" height="1.8"/>
		<rect x="18.4" y="11.6" class="st7" width="0.6" height="1.8"/>
		<rect x="18.4" y="8.6" class="st7" width="0.6" height="1.8"/>
		<rect x="18.4" y="5.6" class="st7" width="0.6" height="1.8"/>
		<rect x="18.4" y="2.6" class="st7" width="0.6" height="1.8"/>
		
			<linearGradient id="solid_00000089547753279606233180000003101122275256806577_" gradientUnits="userSpaceOnUse" x1="40.7574" y1="7.2657" x2="19.5522" y2="11.773">
			<stop  offset="3.310688e-04" style="stop-color:#C054A0"/>
			<stop  offset="0.9893" style="stop-color:#B0248F"/>
		</linearGradient>
		<path id="solid" style="fill:url(#solid_00000089547753279606233180000003101122275256806577_);" d="M39.5,17.6
			c0,0.7-0.6,1.2-1.2,1.2H22.1c-0.7,0-1.2-0.6-1.2-1.2V1.4c0-0.7,0.6-1.2,1.2-1.2h16.2c0.7,0,1.2,0.6,1.2,1.2V17.6z"/>
		<polygon class="st7" points="19,39.4 17.7,39.4 17.7,38.8 18.4,38.8 18.4,38.2 19,38.2 		"/>
		<rect x="14.7" y="38.8" class="st7" width="1.8" height="0.6"/>
		<rect x="11.7" y="38.8" class="st7" width="1.8" height="0.6"/>
		<rect x="8.7" y="38.8" class="st7" width="1.8" height="0.6"/>
		<rect x="5.7" y="38.8" class="st7" width="1.8" height="0.6"/>
		<rect x="2.7" y="38.8" class="st7" width="1.8" height="0.6"/>
		<polygon class="st7" points="1.5,39.4 0.3,39.4 0.3,38.2 0.9,38.2 0.9,38.8 1.5,38.8 		"/>
		<rect x="0.3" y="35.2" class="st7" width="0.6" height="1.8"/>
		<rect x="0.3" y="32.2" class="st7" width="0.6" height="1.8"/>
		<rect x="0.3" y="29.2" class="st7" width="0.6" height="1.8"/>
		<rect x="0.3" y="26.1" class="st7" width="0.6" height="1.8"/>
		<rect x="0.3" y="23.1" class="st7" width="0.6" height="1.8"/>
		<polygon class="st7" points="0.9,21.9 0.3,21.9 0.3,20.7 1.5,20.7 1.5,21.3 0.9,21.3 		"/>
		<rect x="14.7" y="20.7" class="st7" width="1.8" height="0.6"/>
		<rect x="11.7" y="20.7" class="st7" width="1.8" height="0.6"/>
		<rect x="8.7" y="20.7" class="st7" width="1.8" height="0.6"/>
		<rect x="5.7" y="20.7" class="st7" width="1.8" height="0.6"/>
		<rect x="2.7" y="20.7" class="st7" width="1.8" height="0.6"/>
		<polygon class="st7" points="19,21.9 18.4,21.9 18.4,21.3 17.7,21.3 17.7,20.7 19,20.7 		"/>
		<rect x="18.4" y="35.2" class="st7" width="0.6" height="1.8"/>
		<rect x="18.4" y="32.2" class="st7" width="0.6" height="1.8"/>
		<rect x="18.4" y="29.2" class="st7" width="0.6" height="1.8"/>
		<rect x="18.4" y="26.1" class="st7" width="0.6" height="1.8"/>
		<rect x="18.4" y="23.1" class="st7" width="0.6" height="1.8"/>
		<polygon class="st7" points="39.5,39.4 38.3,39.4 38.3,38.8 38.9,38.8 38.9,38.2 39.5,38.2 		"/>
		<rect x="35.3" y="38.8" class="st7" width="1.8" height="0.6"/>
		<rect x="32.3" y="38.8" class="st7" width="1.8" height="0.6"/>
		<rect x="29.3" y="38.8" class="st7" width="1.8" height="0.6"/>
		<rect x="26.2" y="38.8" class="st7" width="1.8" height="0.6"/>
		<rect x="23.2" y="38.8" class="st7" width="1.8" height="0.6"/>
		<polygon class="st7" points="22,39.4 20.8,39.4 20.8,38.2 21.4,38.2 21.4,38.8 22,38.8 		"/>
		<rect x="20.8" y="35.2" class="st7" width="0.6" height="1.8"/>
		<rect x="20.8" y="32.2" class="st7" width="0.6" height="1.8"/>
		<rect x="20.8" y="29.2" class="st7" width="0.6" height="1.8"/>
		<rect x="20.8" y="26.1" class="st7" width="0.6" height="1.8"/>
		<rect x="20.8" y="23.1" class="st7" width="0.6" height="1.8"/>
		<polygon class="st7" points="21.4,21.9 20.8,21.9 20.8,20.7 22,20.7 22,21.3 21.4,21.3 		"/>
		<rect x="35.3" y="20.7" class="st7" width="1.8" height="0.6"/>
		<rect x="32.3" y="20.7" class="st7" width="1.8" height="0.6"/>
		<rect x="29.3" y="20.7" class="st7" width="1.8" height="0.6"/>
		<rect x="26.2" y="20.7" class="st7" width="1.8" height="0.6"/>
		<rect x="23.2" y="20.7" class="st7" width="1.8" height="0.6"/>
		<polygon class="st7" points="39.5,21.9 38.9,21.9 38.9,21.3 38.3,21.3 38.3,20.7 39.5,20.7 		"/>
		<rect x="38.9" y="35.2" class="st7" width="0.6" height="1.8"/>
		<rect x="38.9" y="32.2" class="st7" width="0.6" height="1.8"/>
		<rect x="38.9" y="29.2" class="st7" width="0.6" height="1.8"/>
		<rect x="38.9" y="26.1" class="st7" width="0.6" height="1.8"/>
		<rect x="38.9" y="23.1" class="st7" width="0.6" height="1.8"/>
	</g>
</g>
<g id="guides">
	<g>
		
			<linearGradient id="SVGID_00000137127748232680000210000003928834934324524191_" gradientUnits="userSpaceOnUse" x1="42.6109" y1="15.122" x2="-1.6517" y2="24.5303">
			<stop  offset="3.310688e-04" style="stop-color:#C054A0"/>
			<stop  offset="0.9893" style="stop-color:#B0248F"/>
		</linearGradient>
		<path style="fill:url(#SVGID_00000137127748232680000210000003928834934324524191_);" d="M34.8,0.5H6.1c-3.2,0-5.7,2.6-5.7,5.7
			v27.2c0,3.2,2.6,5.7,5.7,5.7h28.7c3.2,0,5.7-2.6,5.7-5.7V6.2C40.6,3.1,38,0.5,34.8,0.5z M10.5,30.8H9.2c-0.7,0-1.3-0.6-1.3-1.3
			s0.6-1.3,1.3-1.3h1.3c0.7,0,1.3,0.6,1.3,1.3S11.2,30.8,10.5,30.8z M10.5,21.1H9.2c-0.7,0-1.3-0.6-1.3-1.3c0-0.7,0.6-1.3,1.3-1.3
			h1.3c0.7,0,1.3,0.6,1.3,1.3C11.8,20.5,11.2,21.1,10.5,21.1z M10.5,11.4H9.2c-0.7,0-1.3-0.6-1.3-1.3s0.6-1.3,1.3-1.3h1.3
			c0.7,0,1.3,0.6,1.3,1.3S11.2,11.4,10.5,11.4z M31.8,30.8H16c-0.7,0-1.3-0.6-1.3-1.3s0.6-1.3,1.3-1.3h15.8c0.7,0,1.3,0.6,1.3,1.3
			S32.5,30.8,31.8,30.8z M31.8,21.1H16c-0.7,0-1.3-0.6-1.3-1.3c0-0.7,0.6-1.3,1.3-1.3h15.8c0.7,0,1.3,0.6,1.3,1.3
			C33.1,20.5,32.5,21.1,31.8,21.1z M31.8,11.4H16c-0.7,0-1.3-0.6-1.3-1.3s0.6-1.3,1.3-1.3h15.8c0.7,0,1.3,0.6,1.3,1.3
			S32.5,11.4,31.8,11.4z"/>
	</g>
</g>
</svg>
