<?xml version="1.0" encoding="utf-8"?>
<!-- Generator: Adobe Illustrator 27.7.0, SVG Export Plug-In . SVG Version: 6.00 Build 0)  -->
<svg version="1.1" xmlns="http://www.w3.org/2000/svg" xmlns:xlink="http://www.w3.org/1999/xlink" x="0px" y="0px"
	 viewBox="0 0 41 39.5" style="enable-background:new 0 0 41 39.5;" xml:space="preserve">
<style type="text/css">
	.st0{display:none;}
	.st1{display:inline;}
	.st2{fill:url(#SVGID_1_);}
	.st3{fill:url(#SVGID_00000092425438261060241210000001525978177738154640_);}
	.st4{fill:#FFFFFF;}
	.st5{fill:url(#SVGID_00000057863207231854059540000003392464197065031829_);}
	.st6{fill:none;}
	.st7{fill:#ADADAD;}
	.st8{fill:url(#solid_00000092426220164000244280000005371444940405357712_);}
	.st9{fill:url(#SVGID_00000110471459488444937420000010012062255983189149_);}
</style>
<g id="Download" class="st0">
	<g class="st1">
		<linearGradient id="SVGID_1_" gradientUnits="userSpaceOnUse" x1="44.2377" y1="15.1747" x2="-7.6573" y2="25.5702">
			<stop  offset="3.310688e-04" style="stop-color:#C054A0"/>
			<stop  offset="0.8591" style="stop-color:#B0248F"/>
		</linearGradient>
		<path class="st2" d="M42.4,12.9c-0.4-7-5.9-12.5-13-12.5c-4.6,0-8.6,2.3-11,6c-1.7-1.1-3.8-1.9-6-1.9c-4.9,0-9,3.2-10.4,7.7
			c-0.2,0-0.4-0.1-0.5-0.1c-6,0-11,4.9-11,11s4.9,11,11,11h37.3c6,0,11-4.9,11-11C49.8,18.4,46.7,14.3,42.4,12.9z M26.1,22.7l-5,6.4
			c-0.5,0.6-1.5,0.6-2,0l-4.9-6.4c-0.4-0.5-0.4-1.4,0.2-1.7c0.2-0.1,1-0.5,1.7,0.2l2.7,3.6V13.7c0-0.7,0.5-1.2,1.2-1.2
			s1.2,0.5,1.2,1.2v11.1l2.7-3.6c0.4-0.5,1.2-0.6,1.7-0.2C26.5,21.5,26.5,22.2,26.1,22.7z"/>
	</g>
</g>
<g id="Users">
	<g id="user">
		<g>
			<g>
				<path d="M25.1,11.1c0.9,0.1,1.7,0.3,1.7,0.3C25,10.4,25,6.8,25,6.8c0.3-7-4.3-6.7-4.3-6.7l0,0l0,0c0,0-4.6-0.4-4.3,6.6
					c0,0,0,3.6-1.8,4.6c0,0,0.5,0,1.2,0c-1.9,0.8-3.2,2.7-3.2,4.9c0,3,2.4,2.4,5.3,2.4h5.5c3,0,5.3,0.5,5.3-2.4
					C28.8,13.8,27.2,11.8,25.1,11.1z M21.9,12.5l-1.2,2l-1.2-2c-0.9-0.2-1.6-0.6-1.9-1.1c0.7,0.1,1.3,0.2,1.5,0.5l-0.7-1.5
					c0.7,0.7,1.4,1,2.3,1c0.8,0,1.6-0.4,2.2-1l-0.5,1c0.2-0.3,0.8-0.3,1.5-0.3C23.8,11.7,23,12.3,21.9,12.5z M24.3,6.1
					C24.2,7,24,7.9,23.6,8.6c-0.6,1.3-1.7,2.1-2.9,2.1c-1.8,0-3.3-2-3.5-4.5c0,0,1.4-0.2,2.3-0.6c0,0,1.5-0.5,3.4-1.9l0,0
					c0,0,0,0,0.1,0.1c0.2,0.3,0.5,1.1-0.1,1.5l1.2,0.2l0,0h0.2C24.3,5.7,24.3,5.9,24.3,6.1z"/>
				
					<linearGradient id="SVGID_00000147199880472233440350000013702891565114834834_" gradientUnits="userSpaceOnUse" x1="28.3393" y1="13.4532" x2="12.5708" y2="16.8049">
					<stop  offset="3.310688e-04" style="stop-color:#C054A0"/>
					<stop  offset="0.9893" style="stop-color:#B0248F"/>
				</linearGradient>
				<path style="fill:url(#SVGID_00000147199880472233440350000013702891565114834834_);" d="M23.8,10.9c0,1-1.5,1.7-3.2,1.7
					s-3.2-0.8-3.2-1.7c-2.7,0.3-4.9,2.5-4.9,5.2c0,2.9,2.4,2.9,5.4,2.9h5.6c2.9,0,5.4,0,5.4-2.9C28.7,13.3,26.6,11.1,23.8,10.9z"/>
				<path class="st4" d="M22.5,11.4l0.5-1c-0.6,0.6-1.4,1-2.2,1c-0.9,0-1.6-0.4-2.3-1l0.7,1.5c-0.2-0.3-0.8-0.4-1.5-0.5
					c0.3,0.5,1,0.9,1.9,1.1l1.2,2l1.2-2c1.1-0.2,1.9-0.8,2-1.5C23.2,11,22.6,11.1,22.5,11.4z"/>
			</g>
			<path d="M36.5,31.7c0.9,0.1,1.7,0.3,1.7,0.3c-1.8-1-1.8-4.6-1.8-4.6c0.3-7-4.3-6.6-4.3-6.6l0,0l0,0c0,0-4.6-0.4-4.3,6.6
				c0,0,0,3.6-1.8,4.6c0,0,0.5,0,1.2,0c-1.9,0.8-3.2,2.7-3.2,4.9c0,3,2.4,2.4,5.3,2.4h5.5c3,0,5.3,0.5,5.3-2.4
				C40.3,34.4,38.7,32.4,36.5,31.7z M33.4,33.1l-1.2,2l-1.2-2c-0.9-0.2-1.6-0.6-1.9-1.1c0.7,0.1,1.3,0.2,1.5,0.5L29.9,31
				c0.7,0.7,1.4,1,2.3,1c0.8,0,1.6-0.4,2.2-1l-0.5,1c0.2-0.3,0.8-0.3,1.5-0.3C35.3,32.3,34.5,32.9,33.4,33.1z M35.7,26.7
				c-0.1,0.9-0.3,1.8-0.7,2.5c-0.6,1.3-1.7,2.1-2.9,2.1c-1.8,0-3.3-2-3.5-4.5c0,0,1.4-0.2,2.3-0.6c0,0,1.5-0.5,3.4-1.9l0,0
				c0,0,0,0,0.1,0.1c0.2,0.3,0.5,1.1-0.1,1.5l1.2,0.2l0,0h0.2C35.8,26.4,35.8,26.5,35.7,26.7z"/>
			
				<linearGradient id="SVGID_00000094609074397965316780000017075906913870961053_" gradientUnits="userSpaceOnUse" x1="17.2248" y1="33.5761" x2="1.0631" y2="37.0114">
				<stop  offset="3.310688e-04" style="stop-color:#D5D5D5"/>
				<stop  offset="0.9893" style="stop-color:#ADADAD"/>
			</linearGradient>
			<path style="fill:url(#SVGID_00000094609074397965316780000017075906913870961053_);" d="M12.6,30.8c0,1-1.5,1.8-3.3,1.8
				S6,31.8,6,30.8c-2.8,0.3-5,2.6-5,5.5c0,3,2.5,3,5.5,3h5.7c3,0,5.5,0,5.5-3C17.6,33.4,15.4,31.1,12.6,30.8z"/>
			<path d="M5.1,25.8v0.1c0.3,3,2,5.3,4.1,5.3s3.9-2.3,4.1-5.3v-0.1c0-0.1,0-0.3,0-0.4s0-0.2,0-0.3c0-0.2,0-0.5,0-0.7
				c-0.3-2.1-2-3.8-4.2-3.8c-2.1,0-3.8,1.6-4.2,3.8c0,0.2,0,0.4,0,0.7c0,0.1,0,0.2,0,0.3C5.1,25.6,5.1,25.7,5.1,25.8z M6.7,23.4
				c0,0,1.2,0.6,2.6,0.6s2.6-0.6,2.6-0.6c0.9,0.3,0.5,2.8,0.5,2.8c0.2-0.2,0.4-0.2,0.6-0.3c-0.2,2.6-1.8,4.6-3.6,4.6
				c-1.9,0-3.4-2-3.6-4.6c0.2,0,0.4,0.1,0.6,0.3C6.2,26.3,5.8,23.8,6.7,23.4z"/>
			<g id="face-shirt-patterns">
				<path class="st6" d="M9.3,30.6c1.9,0,3.4-2,3.6-4.6c-0.2,0-0.4,0.1-0.6,0.3c0,0,0.4-2.5-0.5-2.8c0,0-1.2,0.6-2.6,0.6
					s-2.6-0.6-2.6-0.6c-0.9,0.3-0.5,2.8-0.5,2.8c-0.2-0.2-0.4-0.2-0.6-0.3C5.9,28.6,7.4,30.6,9.3,30.6z"/>
				<path class="st6" d="M24,5.5l-1.2-0.2c0.7-0.4,0.3-1.2,0.1-1.5c0-0.1-0.1-0.1-0.1-0.1l0,0c-1.9,1.4-3.4,1.9-3.4,1.9
					c-0.9,0.3-2.3,0.6-2.3,0.6c0.2,2.5,1.7,4.5,3.5,4.5c1.2,0,2.2-0.8,2.9-2.1c0.4-0.7,0.6-1.6,0.7-2.5c0-0.2,0-0.3,0-0.5L24,5.5
					C24.1,5.5,24,5.5,24,5.5z"/>
				<path class="st6" d="M35.5,26.1l-1.2-0.2c0.7-0.4,0.3-1.2,0.1-1.5c0-0.1-0.1-0.1-0.1-0.1l0,0c-1.9,1.4-3.4,1.9-3.4,1.9
					c-0.9,0.3-2.3,0.6-2.3,0.6c0.2,2.5,1.7,4.5,3.5,4.5c1.2,0,2.2-0.8,2.9-2.1c0.4-0.7,0.6-1.6,0.7-2.5c0-0.2,0-0.3,0-0.5L35.5,26.1
					L35.5,26.1L35.5,26.1z"/>
				<path class="st6" d="M33.9,32l0.5-1c-0.6,0.6-1.4,1-2.2,1c-0.9,0-1.6-0.4-2.3-1l0.7,1.5c-0.2-0.3-0.8-0.4-1.5-0.5
					c0.3,0.5,1,0.9,1.9,1.1l1.2,2l1.2-2c1.1-0.2,1.9-0.8,2-1.5C34.7,31.6,34.1,31.7,33.9,32z"/>
			</g>
			<polygon class="st0" points="22,20.8 19.4,20.8 19.4,27.4 13.6,30.8 14.9,33.1 20.7,29.8 26.5,33.1 27.8,30.8 22,27.4 			"/>
		</g>
	</g>
</g>
<g id="resources" class="st0">
	<g class="st1">
		<polygon class="st7" points="19.6,18.9 18.4,18.9 18.4,18.3 19,18.3 19,17.6 19.6,17.6 		"/>
		<rect x="15.4" y="18.3" class="st7" width="1.8" height="0.6"/>
		<rect x="12.3" y="18.3" class="st7" width="1.8" height="0.6"/>
		<rect x="9.3" y="18.3" class="st7" width="1.8" height="0.6"/>
		<rect x="6.3" y="18.3" class="st7" width="1.8" height="0.6"/>
		<rect x="3.3" y="18.3" class="st7" width="1.8" height="0.6"/>
		<polygon class="st7" points="2.1,18.9 0.9,18.9 0.9,17.6 1.5,17.6 1.5,18.3 2.1,18.3 		"/>
		<rect x="0.9" y="14.6" class="st7" width="0.6" height="1.8"/>
		<rect x="0.9" y="11.6" class="st7" width="0.6" height="1.8"/>
		<rect x="0.9" y="8.6" class="st7" width="0.6" height="1.8"/>
		<rect x="0.9" y="5.6" class="st7" width="0.6" height="1.8"/>
		<rect x="0.9" y="2.6" class="st7" width="0.6" height="1.8"/>
		<polygon class="st7" points="1.5,1.4 0.9,1.4 0.9,0.2 2.1,0.2 2.1,0.8 1.5,0.8 		"/>
		<rect x="15.4" y="0.2" class="st7" width="1.8" height="0.6"/>
		<rect x="12.3" y="0.2" class="st7" width="1.8" height="0.6"/>
		<rect x="9.3" y="0.2" class="st7" width="1.8" height="0.6"/>
		<rect x="6.3" y="0.2" class="st7" width="1.8" height="0.6"/>
		<rect x="3.3" y="0.2" class="st7" width="1.8" height="0.6"/>
		<polygon class="st7" points="19.6,1.4 19,1.4 19,0.8 18.4,0.8 18.4,0.2 19.6,0.2 		"/>
		<rect x="19" y="14.6" class="st7" width="0.6" height="1.8"/>
		<rect x="19" y="11.6" class="st7" width="0.6" height="1.8"/>
		<rect x="19" y="8.6" class="st7" width="0.6" height="1.8"/>
		<rect x="19" y="5.6" class="st7" width="0.6" height="1.8"/>
		<rect x="19" y="2.6" class="st7" width="0.6" height="1.8"/>
		
			<linearGradient id="solid_00000170271688883905268350000014724690586436012970_" gradientUnits="userSpaceOnUse" x1="41.3728" y1="7.2657" x2="20.1676" y2="11.773">
			<stop  offset="3.310688e-04" style="stop-color:#C054A0"/>
			<stop  offset="0.9893" style="stop-color:#B0248F"/>
		</linearGradient>
		<path id="solid" style="fill:url(#solid_00000170271688883905268350000014724690586436012970_);" d="M40.1,17.6
			c0,0.7-0.6,1.2-1.2,1.2H22.7c-0.7,0-1.2-0.6-1.2-1.2V1.4c0-0.7,0.6-1.2,1.2-1.2h16.2c0.7,0,1.2,0.6,1.2,1.2V17.6z"/>
		<polygon class="st7" points="19.6,39.4 18.4,39.4 18.4,38.8 19,38.8 19,38.2 19.6,38.2 		"/>
		<rect x="15.4" y="38.8" class="st7" width="1.8" height="0.6"/>
		<rect x="12.3" y="38.8" class="st7" width="1.8" height="0.6"/>
		<rect x="9.3" y="38.8" class="st7" width="1.8" height="0.6"/>
		<rect x="6.3" y="38.8" class="st7" width="1.8" height="0.6"/>
		<rect x="3.3" y="38.8" class="st7" width="1.8" height="0.6"/>
		<polygon class="st7" points="2.1,39.4 0.9,39.4 0.9,38.2 1.5,38.2 1.5,38.8 2.1,38.8 		"/>
		<rect x="0.9" y="35.2" class="st7" width="0.6" height="1.8"/>
		<rect x="0.9" y="32.2" class="st7" width="0.6" height="1.8"/>
		<rect x="0.9" y="29.2" class="st7" width="0.6" height="1.8"/>
		<rect x="0.9" y="26.1" class="st7" width="0.6" height="1.8"/>
		<rect x="0.9" y="23.1" class="st7" width="0.6" height="1.8"/>
		<polygon class="st7" points="1.5,21.9 0.9,21.9 0.9,20.7 2.1,20.7 2.1,21.3 1.5,21.3 		"/>
		<rect x="15.4" y="20.7" class="st7" width="1.8" height="0.6"/>
		<rect x="12.3" y="20.7" class="st7" width="1.8" height="0.6"/>
		<rect x="9.3" y="20.7" class="st7" width="1.8" height="0.6"/>
		<rect x="6.3" y="20.7" class="st7" width="1.8" height="0.6"/>
		<rect x="3.3" y="20.7" class="st7" width="1.8" height="0.6"/>
		<polygon class="st7" points="19.6,21.9 19,21.9 19,21.3 18.4,21.3 18.4,20.7 19.6,20.7 		"/>
		<rect x="19" y="35.2" class="st7" width="0.6" height="1.8"/>
		<rect x="19" y="32.2" class="st7" width="0.6" height="1.8"/>
		<rect x="19" y="29.2" class="st7" width="0.6" height="1.8"/>
		<rect x="19" y="26.1" class="st7" width="0.6" height="1.8"/>
		<rect x="19" y="23.1" class="st7" width="0.6" height="1.8"/>
		<polygon class="st7" points="40.1,39.4 38.9,39.4 38.9,38.8 39.5,38.8 39.5,38.2 40.1,38.2 		"/>
		<rect x="35.9" y="38.8" class="st7" width="1.8" height="0.6"/>
		<rect x="32.9" y="38.8" class="st7" width="1.8" height="0.6"/>
		<rect x="29.9" y="38.8" class="st7" width="1.8" height="0.6"/>
		<rect x="26.9" y="38.8" class="st7" width="1.8" height="0.6"/>
		<rect x="23.8" y="38.8" class="st7" width="1.8" height="0.6"/>
		<polygon class="st7" points="22.6,39.4 21.4,39.4 21.4,38.2 22,38.2 22,38.8 22.6,38.8 		"/>
		<rect x="21.4" y="35.2" class="st7" width="0.6" height="1.8"/>
		<rect x="21.4" y="32.2" class="st7" width="0.6" height="1.8"/>
		<rect x="21.4" y="29.2" class="st7" width="0.6" height="1.8"/>
		<rect x="21.4" y="26.1" class="st7" width="0.6" height="1.8"/>
		<rect x="21.4" y="23.1" class="st7" width="0.6" height="1.8"/>
		<polygon class="st7" points="22,21.9 21.4,21.9 21.4,20.7 22.6,20.7 22.6,21.3 22,21.3 		"/>
		<rect x="35.9" y="20.7" class="st7" width="1.8" height="0.6"/>
		<rect x="32.9" y="20.7" class="st7" width="1.8" height="0.6"/>
		<rect x="29.9" y="20.7" class="st7" width="1.8" height="0.6"/>
		<rect x="26.9" y="20.7" class="st7" width="1.8" height="0.6"/>
		<rect x="23.8" y="20.7" class="st7" width="1.8" height="0.6"/>
		<polygon class="st7" points="40.1,21.9 39.5,21.9 39.5,21.3 38.9,21.3 38.9,20.7 40.1,20.7 		"/>
		<rect x="39.5" y="35.2" class="st7" width="0.6" height="1.8"/>
		<rect x="39.5" y="32.2" class="st7" width="0.6" height="1.8"/>
		<rect x="39.5" y="29.2" class="st7" width="0.6" height="1.8"/>
		<rect x="39.5" y="26.1" class="st7" width="0.6" height="1.8"/>
		<rect x="39.5" y="23.1" class="st7" width="0.6" height="1.8"/>
	</g>
</g>
<g id="guides" class="st0">
	<g class="st1">
		
			<linearGradient id="SVGID_00000138547127345518407560000007654400989310135949_" gradientUnits="userSpaceOnUse" x1="42.6109" y1="15.122" x2="-1.6517" y2="24.5303">
			<stop  offset="3.310688e-04" style="stop-color:#C054A0"/>
			<stop  offset="0.9893" style="stop-color:#B0248F"/>
		</linearGradient>
		<path style="fill:url(#SVGID_00000138547127345518407560000007654400989310135949_);" d="M34.8,0.5H6.1c-3.2,0-5.7,2.6-5.7,5.7
			v27.2c0,3.2,2.6,5.7,5.7,5.7h28.7c3.2,0,5.7-2.6,5.7-5.7V6.2C40.6,3.1,38,0.5,34.8,0.5z M10.5,30.8H9.2c-0.7,0-1.3-0.6-1.3-1.3
			s0.6-1.3,1.3-1.3h1.3c0.7,0,1.3,0.6,1.3,1.3S11.2,30.8,10.5,30.8z M10.5,21.1H9.2c-0.7,0-1.3-0.6-1.3-1.3c0-0.7,0.6-1.3,1.3-1.3
			h1.3c0.7,0,1.3,0.6,1.3,1.3C11.8,20.5,11.2,21.1,10.5,21.1z M10.5,11.4H9.2c-0.7,0-1.3-0.6-1.3-1.3s0.6-1.3,1.3-1.3h1.3
			c0.7,0,1.3,0.6,1.3,1.3S11.2,11.4,10.5,11.4z M31.8,30.8H16c-0.7,0-1.3-0.6-1.3-1.3s0.6-1.3,1.3-1.3h15.8c0.7,0,1.3,0.6,1.3,1.3
			S32.5,30.8,31.8,30.8z M31.8,21.1H16c-0.7,0-1.3-0.6-1.3-1.3c0-0.7,0.6-1.3,1.3-1.3h15.8c0.7,0,1.3,0.6,1.3,1.3
			C33.1,20.5,32.5,21.1,31.8,21.1z M31.8,11.4H16c-0.7,0-1.3-0.6-1.3-1.3s0.6-1.3,1.3-1.3h15.8c0.7,0,1.3,0.6,1.3,1.3
			S32.5,11.4,31.8,11.4z"/>
	</g>
</g>
</svg>
